<svg width="99" height="99" viewBox="0 0 99 99" fill="none" xmlns="http://www.w3.org/2000/svg">
<g clip-path="url(#clip0_1_5)">
<path d="M49.312 0C22.078 0 0 22.078 0 49.312C0 76.546 22.078 98.624 49.312 98.624C76.546 98.624 98.624 76.546 98.624 49.312C98.624 22.078 76.546 0 49.312 0ZM68.656 56.463C64.933 61.249 60.147 63.642 54.298 63.642C52.37 63.642 50.542 63.177 48.814 62.246C47.086 61.315 45.889 60.219 45.224 58.956C43.828 64.673 42.964 68.063 42.632 69.126C41.568 72.981 39.342 77.036 35.951 81.291C35.552 81.69 35.286 81.623 35.153 81.092C34.355 75.442 34.389 70.755 35.253 67.033L39.939 46.792C39.141 45.263 38.742 43.335 38.742 41.009C38.742 38.284 39.44 36.007 40.836 34.179C42.232 32.351 43.927 31.437 45.921 31.437C47.516 31.437 48.746 31.952 49.61 32.983C50.474 34.013 50.906 35.326 50.906 36.922C50.906 37.919 50.723 39.132 50.358 40.561C49.992 41.99 49.51 43.652 48.912 45.546C48.314 47.441 47.882 48.953 47.616 50.083C47.151 52.011 47.516 53.689 48.713 55.118C49.91 56.547 51.505 57.262 53.499 57.262C56.889 57.262 59.681 55.334 61.875 51.479C64.069 47.624 65.165 42.97 65.165 37.52C65.165 33.332 63.819 29.925 61.127 27.3C58.435 24.674 54.662 23.361 49.81 23.361C44.359 23.361 39.955 25.106 36.598 28.596C33.241 32.086 31.563 36.257 31.563 41.11C31.563 43.968 32.394 46.395 34.056 48.389C34.588 49.054 34.754 49.719 34.555 50.383C34.488 50.516 34.405 50.865 34.306 51.43C34.206 51.995 34.123 52.394 34.057 52.627C33.991 52.86 33.858 53.209 33.658 53.674C33.459 54.139 33.226 54.355 32.96 54.322C32.694 54.289 32.362 54.272 31.963 54.272C26.911 52.211 24.385 47.525 24.385 40.213C24.385 34.363 26.745 29.045 31.464 24.259C36.184 19.473 42.632 17.08 50.808 17.08C57.655 17.08 63.272 19.174 67.659 23.362C72.046 27.55 74.24 32.502 74.24 38.219C74.24 45.594 72.378 51.677 68.656 56.463Z" fill="white"/>
</g>
<defs>
<clipPath id="clip0_1_5">
<rect width="98.624" height="98.624" fill="white"/>
</clipPath>
</defs>
</svg>
