<svg width="120" height="120" viewBox="0 0 120 120" fill="none" xmlns="http://www.w3.org/2000/svg">
<path d="M60 0C26.8632 0 0 26.8632 0 60C0 93.1368 26.8632 120 60 120C93.1368 120 120 93.1368 120 60C120 26.8632 93.1368 0 60 0ZM86.0188 67.9307C86.4909 68.5148 87.614 69.6524 89.3904 71.3461H89.4318L89.4732 71.3863L89.5145 71.4289L89.5985 71.5116C93.5115 75.1472 96.1616 78.2146 97.5499 80.7126C97.6338 80.8501 97.7239 81.0253 97.8212 81.2334C97.9174 81.4414 98.0147 81.8089 98.112 82.3357C98.2081 82.865 98.2008 83.3347 98.0913 83.7508C97.9806 84.1657 97.6338 84.5502 97.051 84.8958C96.4682 85.2438 95.6493 85.4165 94.5944 85.4165L83.937 85.5844C83.2714 85.7231 82.4939 85.6538 81.6057 85.3764C80.7163 85.0977 79.9959 84.7923 79.4411 84.4602L78.6076 83.9589C77.7742 83.3761 76.8032 82.4878 75.6935 81.2954C74.5827 80.1018 73.6324 79.0262 72.8415 78.0686C72.0506 77.1111 71.2038 76.308 70.3009 75.6534C69.3981 75.0012 68.6145 74.7859 67.949 75.0085C67.8662 75.0377 67.7543 75.0864 67.6156 75.1545C67.4757 75.2239 67.2408 75.4234 66.9074 75.758C66.5741 76.0914 66.276 76.5015 66.0119 76.9857C65.7479 77.4724 65.5118 78.194 65.3038 79.1515C65.0957 80.1079 65.0045 81.1847 65.0337 82.3783C65.0337 82.7932 64.9838 83.1765 64.8877 83.5233C64.7903 83.87 64.6857 84.1268 64.575 84.2923L64.4083 84.5003C63.9082 85.0296 63.1733 85.3338 62.2023 85.4165H57.4144C55.4433 85.5285 53.4174 85.2997 51.3368 84.7303C49.2562 84.1596 47.4298 83.4259 45.8627 82.5231C44.2931 81.6227 42.8646 80.7065 41.5749 79.7769C40.2839 78.8461 39.3056 78.0492 38.6401 77.3836L37.5998 76.3834C37.3224 76.1072 36.9403 75.6899 36.4548 75.1338C35.9693 74.579 34.9777 73.3172 33.4787 71.3461C31.9796 69.375 30.5086 67.281 29.0655 65.0592C27.6225 62.8387 25.9227 59.91 23.965 56.2743C22.0084 52.6399 20.1979 48.8656 18.5322 44.9513C18.3655 44.5084 18.2816 44.1337 18.2816 43.8283C18.2816 43.5241 18.3229 43.3014 18.4069 43.1615L18.5736 42.9121C18.9897 42.384 19.7806 42.12 20.9462 42.12L32.3532 42.0372C32.6866 42.0932 33.0054 42.1832 33.3108 42.3086C33.6162 42.4327 33.8388 42.5507 33.9775 42.6614L34.1856 42.7867C34.6297 43.0934 34.9619 43.5363 35.1845 44.1191C35.7394 45.5086 36.3782 46.9444 37.0997 48.4288C37.8212 49.9132 38.3907 51.0448 38.8068 51.8211L39.4723 53.0293C40.2766 54.6938 41.0541 56.1381 41.8036 57.3585C42.5543 58.5801 43.226 59.5316 43.8234 60.2105C44.4196 60.8907 44.9951 61.426 45.5512 61.8129C46.106 62.2023 46.5781 62.397 46.9675 62.397C47.3556 62.397 47.7304 62.3276 48.0917 62.1889C48.1465 62.1609 48.2159 62.0916 48.2998 61.9809C48.3838 61.8701 48.5492 61.5647 48.7999 61.0634C49.0493 60.5646 49.2367 59.9124 49.362 59.1069C49.4873 58.3039 49.6188 57.1796 49.7575 55.7365C49.8962 54.2923 49.8962 52.5584 49.7575 50.5325C49.7015 49.4216 49.5762 48.4093 49.3827 47.4931C49.188 46.5781 48.9933 45.9393 48.7999 45.578L48.5492 45.0791C47.8557 44.1361 46.6767 43.5387 45.011 43.288C44.6496 43.2345 44.7189 42.9011 45.219 42.2903C45.6911 41.7622 46.218 41.3473 46.8008 41.0407C48.2718 40.3204 51.5887 39.987 56.7513 40.0406C59.0266 40.0698 60.9004 40.2486 62.3714 40.582C62.9263 40.7219 63.3911 40.9081 63.7658 41.1441C64.1406 41.379 64.4253 41.7136 64.62 42.1419C64.8134 42.5726 64.9594 43.0167 65.0568 43.4742C65.1541 43.9329 65.2028 44.5656 65.2028 45.3687C65.2028 46.1742 65.1894 46.9383 65.1614 47.6586C65.1334 48.3801 65.0994 49.3596 65.058 50.5934C65.0166 51.8284 64.9947 52.9745 64.9947 54.0282C64.9947 54.3348 64.9813 54.9165 64.9534 55.7767C64.9254 56.6381 64.9169 57.3037 64.9327 57.7746C64.9461 58.2467 64.9947 58.81 65.0775 59.461C65.1614 60.1132 65.3208 60.6558 65.5569 61.0841C65.7917 61.5148 66.1044 61.8543 66.4938 62.1037C66.7152 62.1609 66.9512 62.2157 67.2019 62.2717C67.4513 62.3264 67.8115 62.1755 68.2836 61.8129C68.7545 61.4528 69.2825 60.9734 69.8653 60.3772C70.4482 59.7822 71.1697 58.8526 72.0299 57.5884C72.889 56.3279 73.8331 54.8349 74.8601 53.1132C76.5258 50.2271 78.0102 47.1037 79.3146 43.7455C79.4253 43.4669 79.564 43.2248 79.7307 43.0167C79.8974 42.8074 80.0495 42.6614 80.1882 42.5787L80.3549 42.4534C80.4096 42.4254 80.479 42.3913 80.5629 42.3499C80.6469 42.3098 80.827 42.2672 81.1044 42.2246C81.3818 42.1845 81.6592 42.1772 81.9379 42.2051L93.9276 42.12C95.0093 41.9825 95.8976 42.0165 96.5911 42.2234C97.2846 42.4315 97.7154 42.6614 97.8821 42.9109L98.1327 43.327C98.7703 45.1046 96.6896 49.1819 91.8884 55.5662C91.2216 56.4556 90.3188 57.6359 89.1824 59.1057C87.0178 61.8823 85.7694 63.7001 85.4384 64.5628C84.9639 65.698 85.1586 66.8223 86.0188 67.9307Z" fill="white"/>
</svg>
