<?xml version="1.0" encoding="UTF-8"?> <svg xmlns="http://www.w3.org/2000/svg" width="640" height="140" viewBox="0 0 640 140" fill="none"> <path d="M227.356 57.2462C225.948 57.2462 224.866 56.6598 224.111 55.4869C223.356 54.314 223.281 53.0681 223.885 51.7489L245.091 2.56544C245.845 0.855146 247.078 0 248.788 0C250.599 0 251.832 0.855146 252.486 2.56544L273.767 51.8952C274.321 53.2635 274.245 54.5097 273.541 55.6336C272.887 56.7085 271.83 57.2462 270.371 57.2462C269.617 57.2462 268.887 57.0505 268.183 56.6598C267.529 56.2201 267.051 55.6336 266.749 54.9005L247.883 9.74869H250.298L230.978 54.9005C230.626 55.6823 230.098 56.2687 229.394 56.6598C228.74 57.0505 228.06 57.2462 227.356 57.2462Z" fill="black"></path> <path d="M300.362 57.5393C296.186 57.5393 292.463 56.6841 289.193 54.9738C285.973 53.2148 283.432 50.8204 281.571 47.7904C279.759 44.7122 278.854 41.1939 278.854 37.2358C278.854 33.2286 279.709 29.7103 281.42 26.6806C283.181 23.6021 285.596 21.2077 288.665 19.4974C291.733 17.7382 295.255 16.8586 299.23 16.8586C303.154 16.8586 306.524 17.7138 309.342 19.4241C312.159 21.0855 314.297 23.4066 315.756 26.3874C317.266 29.3194 318.021 32.7155 318.021 36.576C318.021 37.5045 317.693 38.2863 317.039 38.9214C316.385 39.5079 315.555 39.8009 314.549 39.8009H284.136V33.9372H314.323L311.229 35.9895C311.178 33.5463 310.675 31.3717 309.719 29.466C308.763 27.5113 307.405 25.9721 305.644 24.8482C303.883 23.7243 301.745 23.1623 299.23 23.1623C296.362 23.1623 293.897 23.7731 291.834 24.9948C289.822 26.2164 288.287 27.9023 287.231 30.0524C286.174 32.1536 285.646 34.548 285.646 37.2358C285.646 39.9233 286.275 42.3177 287.533 44.4188C288.79 46.5202 290.526 48.1815 292.74 49.4031C294.953 50.6246 297.494 51.2358 300.362 51.2358C301.921 51.2358 303.506 50.9667 305.116 50.4293C306.776 49.8428 308.109 49.1834 309.116 48.4502C309.87 47.9128 310.675 47.6441 311.53 47.6441C312.436 47.5951 313.216 47.8394 313.87 48.3769C314.725 49.11 315.178 49.9162 315.228 50.7957C315.279 51.6755 314.876 52.4326 314.021 53.0681C312.31 54.3874 310.172 55.4626 307.606 56.293C305.091 57.1239 302.676 57.5393 300.362 57.5393Z" fill="black"></path> <path d="M345.079 57.5393C341.055 57.5393 337.457 56.6598 334.288 54.9005C331.169 53.0924 328.703 50.6736 326.892 47.6441C325.132 44.5655 324.251 41.0958 324.251 37.2358C324.251 33.2775 325.132 29.7592 326.892 26.6806C328.653 23.6021 331.068 21.2077 334.137 19.4974C337.206 17.7382 340.728 16.8586 344.702 16.8586C347.67 16.8586 350.387 17.4206 352.852 18.5445C355.317 19.6195 357.531 21.2565 359.493 23.4555C360.197 24.2374 360.449 25.0436 360.248 25.8744C360.047 26.7051 359.493 27.4381 358.587 28.0733C357.883 28.5619 357.103 28.733 356.248 28.5864C355.393 28.3909 354.613 27.9511 353.909 27.267C351.444 24.726 348.375 23.4555 344.702 23.4555C342.136 23.4555 339.872 24.0419 337.91 25.2147C335.948 26.3386 334.414 27.9267 333.307 29.979C332.2 32.0314 331.647 34.4503 331.647 37.2358C331.647 39.8743 332.2 42.2201 333.307 44.2721C334.464 46.3245 336.049 47.9615 338.061 49.1834C340.074 50.3559 342.413 50.9424 345.079 50.9424C346.84 50.9424 348.375 50.747 349.683 50.3559C351.041 49.9162 352.274 49.2564 353.38 48.3769C354.185 47.7418 355.015 47.3997 355.871 47.3507C356.726 47.253 357.481 47.473 358.135 48.0105C358.99 48.6946 359.468 49.4764 359.569 50.3559C359.669 51.1867 359.367 51.9442 358.663 52.6284C355.041 55.9023 350.513 57.5393 345.079 57.5393Z" fill="black"></path> <path d="M425.87 57.3192C424.764 57.3192 423.832 56.9772 423.078 56.293C422.375 55.5602 422.023 54.6561 422.023 53.5812V32.6178C422.023 29.5393 421.243 27.267 419.684 25.801C418.125 24.2862 416.087 23.5288 413.571 23.5288C410.953 23.5288 408.791 24.4084 407.08 26.1676C405.419 27.9267 404.589 30.1745 404.589 32.911H398.327C398.327 29.7347 399.03 26.9494 400.441 24.555C401.847 22.1117 403.809 20.2059 406.326 18.8377C408.893 17.4695 411.808 16.7853 415.079 16.7853C417.947 16.7853 420.489 17.3961 422.701 18.6178C424.916 19.8394 426.624 21.6475 427.832 24.0419C429.09 26.3874 429.721 29.2461 429.721 32.6178V53.5812C429.721 54.6561 429.369 55.5602 428.662 56.293C427.959 56.9772 427.027 57.3192 425.87 57.3192ZM375.537 57.3192C374.431 57.3192 373.499 56.9772 372.745 56.293C372.041 55.5602 371.686 54.6561 371.686 53.5812V20.9634C371.686 19.8394 372.041 18.9354 372.745 18.2513C373.499 17.5672 374.431 17.2251 375.537 17.2251C376.693 17.2251 377.625 17.5672 378.329 18.2513C379.032 18.9354 379.384 19.8394 379.384 20.9634V53.5812C379.384 54.6561 379.032 55.5602 378.329 56.293C377.625 56.9772 376.693 57.3192 375.537 57.3192ZM400.742 57.3192C399.636 57.3192 398.704 56.9772 397.949 56.293C397.246 55.5602 396.894 54.6561 396.894 53.5812V32.6178C396.894 29.5393 396.111 27.267 394.552 25.801C392.993 24.2862 390.955 23.5288 388.442 23.5288C385.824 23.5288 383.663 24.4084 381.951 26.1676C380.24 27.9267 379.384 30.1745 379.384 32.911H374.63C374.63 29.7347 375.283 26.9494 376.592 24.555C377.901 22.1117 379.71 20.2059 382.027 18.8377C384.341 17.4695 386.981 16.7853 389.95 16.7853C392.819 16.7853 395.357 17.3961 397.572 18.6178C399.784 19.8394 401.496 21.6475 402.703 24.0419C403.961 26.3874 404.589 29.2461 404.589 32.6178V53.5812C404.589 54.6561 404.237 55.5602 403.534 56.293C402.83 56.9772 401.898 57.3192 400.742 57.3192Z" fill="black"></path> <path d="M477.222 57.2462C476.116 57.2462 475.185 56.9042 474.43 56.22C473.727 55.4869 473.375 54.5831 473.375 53.5079V20.89C473.375 19.7661 473.727 18.8621 474.43 18.178C475.185 17.4939 476.116 17.1518 477.222 17.1518C478.379 17.1518 479.286 17.4939 479.942 18.178C480.595 18.8621 480.921 19.7661 480.921 20.89V53.5079C480.921 54.5831 480.595 55.4869 479.942 56.22C479.286 56.9042 478.379 57.2462 477.222 57.2462ZM446.209 57.2462C445.099 57.2462 444.196 56.9042 443.489 56.22C442.837 55.4869 442.51 54.5831 442.51 53.5079V20.89C442.51 19.7661 442.837 18.8621 443.489 18.178C444.196 17.4939 445.099 17.1518 446.209 17.1518C447.365 17.1518 448.294 17.4939 449.001 18.178C449.704 18.8621 450.056 19.7661 450.056 20.89V53.5079C450.056 54.5831 449.704 55.4869 449.001 56.22C448.294 56.9042 447.365 57.2462 446.209 57.2462ZM449.073 39.7279V33.1309H475.562V39.7279H449.073Z" fill="black"></path> <path d="M511.895 57.6126C508.425 57.6126 505.306 56.9042 502.54 55.4869C499.82 54.021 497.659 51.8952 496.049 49.11C494.49 46.3245 493.71 42.9042 493.71 38.8481V20.8168C493.71 19.7417 494.062 18.8621 494.765 18.178C495.52 17.445 496.451 17.0785 497.557 17.0785C498.663 17.0785 499.57 17.445 500.273 18.178C501.028 18.8621 501.408 19.7417 501.408 20.8168V38.8481C501.408 41.5846 501.934 43.857 502.993 45.665C504.048 47.424 505.48 48.7436 507.293 49.6231C509.103 50.4536 511.141 50.869 513.407 50.869C515.568 50.869 517.479 50.4536 519.14 49.6231C520.851 48.7923 522.211 47.6684 523.215 46.2515C524.223 44.8342 524.724 43.2462 524.724 41.4869H529.481C529.481 44.5165 528.698 47.253 527.139 49.6965C525.63 52.1396 523.542 54.07 520.877 55.4869C518.262 56.9042 515.267 57.6126 511.895 57.6126ZM528.575 57.2462C527.469 57.2462 526.537 56.9042 525.783 56.22C525.079 55.4869 524.724 54.5831 524.724 53.5079V20.8168C524.724 19.6929 525.079 18.7888 525.783 18.1047C526.537 17.4206 527.469 17.0785 528.575 17.0785C529.731 17.0785 530.663 17.4206 531.367 18.1047C532.07 18.7888 532.422 19.6929 532.422 20.8168V53.5079C532.422 54.5831 532.07 55.4869 531.367 56.22C530.663 56.9042 529.731 57.2462 528.575 57.2462Z" fill="black"></path> <path d="M563.338 57.6126C559.813 57.6126 556.669 56.8061 553.903 55.1939C551.187 53.5812 549.047 51.3821 547.488 48.5969C545.929 45.7627 545.149 42.5131 545.149 38.8481V20.8168C545.149 19.6929 545.501 18.7888 546.205 18.1047C546.959 17.4206 547.891 17.0785 548.997 17.0785C550.153 17.0785 551.085 17.4206 551.789 18.1047C552.496 18.7888 552.848 19.6929 552.848 20.8168V38.8481C552.848 41.1939 553.348 43.2706 554.356 45.0786C555.411 46.8866 556.847 48.3035 558.657 49.3297C560.47 50.3559 562.533 50.869 564.846 50.869C567.058 50.869 569.02 50.4783 570.731 49.6965C572.443 48.8656 573.777 47.7418 574.731 46.3245C575.688 44.9076 576.167 43.2949 576.167 41.4869H580.166C580.166 44.6142 579.434 47.3997 577.976 49.8428C576.569 52.2863 574.604 54.192 572.091 55.5602C569.575 56.9285 566.656 57.6126 563.338 57.6126ZM587.56 70.293C586.505 70.293 585.624 69.9267 584.92 69.1939C584.217 68.4607 583.861 67.5569 583.861 66.4817V57.2462H582.73C580.467 57.2462 578.807 56.7331 577.751 55.7069C576.693 54.6808 576.167 53.0681 576.167 50.869V20.8168C576.167 19.6929 576.518 18.7888 577.222 18.1047C577.976 17.4206 578.908 17.0785 580.014 17.0785C581.171 17.0785 582.103 17.4206 582.806 18.1047C583.51 18.7888 583.861 19.6929 583.861 20.8168V50.9424H587.034C588.191 50.9424 589.119 51.3088 589.826 52.0419C590.58 52.726 590.958 53.6299 590.958 54.7538V66.4817C590.958 67.5569 590.631 68.4607 589.975 69.1939C589.373 69.9267 588.568 70.293 587.56 70.293Z" fill="black"></path> <path d="M616.101 57.5393C612.427 57.5393 609.131 56.6598 606.212 54.9005C603.297 53.0924 600.98 50.6736 599.272 47.6441C597.611 44.5655 596.781 41.0958 596.781 37.2358C596.781 33.3752 597.688 29.9058 599.497 26.8272C601.357 23.7487 603.848 21.3298 606.967 19.5707C610.139 17.7626 613.686 16.8586 617.609 16.8586C621.532 16.8586 625.053 17.7626 628.175 19.5707C631.294 21.3298 633.76 23.7487 635.569 26.8272C637.429 29.9058 638.361 33.3752 638.361 37.2358H635.417C635.417 41.0958 634.565 44.5655 632.853 47.6441C631.192 50.6736 628.904 53.0924 625.985 54.9005C623.066 56.6598 619.77 57.5393 616.101 57.5393ZM617.609 50.9424C620.173 50.9424 622.464 50.3559 624.477 49.1834C626.489 47.9615 628.074 46.3245 629.231 44.2721C630.387 42.171 630.967 39.8256 630.967 37.2358C630.967 34.5969 630.387 32.2513 629.231 30.1989C628.074 28.0977 626.489 26.4607 624.477 25.2879C622.464 24.0663 620.173 23.4555 617.609 23.4555C615.093 23.4555 612.805 24.0663 610.741 25.2879C608.729 26.4607 607.119 28.0977 605.911 30.1989C604.755 32.2513 604.174 34.5969 604.174 37.2358C604.174 39.8256 604.755 42.171 605.911 44.2721C607.119 46.3245 608.729 47.9615 610.741 49.1834C612.805 50.3559 615.093 50.9424 617.609 50.9424ZM634.514 57.3192C633.408 57.3192 632.476 56.9772 631.722 56.293C631.015 55.5602 630.663 54.6561 630.663 53.5812V42.3664L632.099 34.5969L638.361 37.2358V53.5812C638.361 54.6561 637.984 55.5602 637.23 56.293C636.526 56.9772 635.62 57.3192 634.514 57.3192Z" fill="black"></path> <path d="M194.745 139.707C193.638 139.707 192.708 139.365 191.953 138.681C191.249 137.948 190.897 137.044 190.897 135.969V103.351C190.897 102.227 191.249 101.323 191.953 100.639C192.708 99.9547 193.638 99.6126 194.745 99.6126C195.902 99.6126 196.808 99.9547 197.462 100.639C198.116 101.323 198.443 102.227 198.443 103.351V135.969C198.443 137.044 198.116 137.948 197.462 138.681C196.808 139.365 195.902 139.707 194.745 139.707ZM163.729 139.707C162.622 139.707 161.717 139.365 161.012 138.681C160.358 137.948 160.031 137.044 160.031 135.969V103.351C160.031 102.227 160.358 101.323 161.012 100.639C161.717 99.9547 162.622 99.6126 163.729 99.6126C164.886 99.6126 165.817 99.9547 166.521 100.639C167.226 101.323 167.578 102.227 167.578 103.351V135.969C167.578 137.044 167.226 137.948 166.521 138.681C165.817 139.365 164.886 139.707 163.729 139.707ZM166.597 122.189V115.592H193.085V122.189H166.597Z" fill="black"></path> <path d="M229.267 140C225.594 140 222.299 139.12 219.381 137.361C216.463 135.553 214.149 133.134 212.438 130.105C210.778 127.026 209.948 123.557 209.948 119.696C209.948 115.836 210.853 112.366 212.665 109.288C214.526 106.21 217.017 103.79 220.136 102.031C223.305 100.223 226.852 99.3192 230.776 99.3192C234.701 99.3192 238.222 100.223 241.341 102.031C244.46 103.79 246.926 106.21 248.737 109.288C250.598 112.366 251.529 115.836 251.529 119.696H248.586C248.586 123.557 247.731 127.026 246.02 130.105C244.36 133.134 242.071 135.553 239.153 137.361C236.235 139.12 232.94 140 229.267 140ZM230.776 133.403C233.342 133.403 235.631 132.817 237.643 131.644C239.656 130.422 241.241 128.785 242.398 126.733C243.555 124.632 244.134 122.286 244.134 119.696C244.134 117.058 243.555 114.712 242.398 112.66C241.241 110.558 239.656 108.921 237.643 107.749C235.631 106.527 233.342 105.916 230.776 105.916C228.261 105.916 225.971 106.527 223.909 107.749C221.897 108.921 220.287 110.558 219.079 112.66C217.922 114.712 217.344 117.058 217.344 119.696C217.344 122.286 217.922 124.632 219.079 126.733C220.287 128.785 221.897 130.422 223.909 131.644C225.971 132.817 228.261 133.403 230.776 133.403ZM247.68 139.78C246.574 139.78 245.643 139.438 244.888 138.754C244.184 138.021 243.832 137.117 243.832 136.042V124.827L245.265 117.058L251.529 119.696V136.042C251.529 137.117 251.152 138.021 250.397 138.754C249.693 139.438 248.787 139.78 247.68 139.78Z" fill="black"></path> <path d="M288.943 139.707C287.836 139.707 286.905 139.365 286.151 138.681C285.446 137.948 285.094 137.044 285.094 135.969V103.351C285.094 102.227 285.446 101.323 286.151 100.639C286.905 99.9547 287.836 99.6126 288.943 99.6126C290.553 99.6126 291.911 100.37 293.018 101.885L308.639 123.801L324.26 101.885C325.367 100.37 326.726 99.6126 328.336 99.6126C329.493 99.6126 330.423 99.9547 331.128 100.639C331.832 101.323 332.184 102.227 332.184 103.351V135.969C332.184 137.044 331.832 137.948 331.128 138.681C330.423 139.365 329.493 139.707 328.336 139.707C327.229 139.707 326.298 139.365 325.544 138.681C324.839 137.948 324.487 137.044 324.487 135.969V109.288L326.449 109.874L312.563 128.932C311.305 130.642 309.947 131.497 308.488 131.497C307.029 131.448 305.696 130.593 304.488 128.932L290.829 109.874L292.791 109.288V135.969C292.791 137.044 292.439 137.948 291.735 138.681C291.031 139.365 290.1 139.707 288.943 139.707Z" fill="black"></path> <path d="M365.141 140C360.965 140 357.242 139.145 353.972 137.435C350.752 135.676 348.211 133.281 346.35 130.251C344.539 127.173 343.633 123.655 343.633 119.696C343.633 115.689 344.488 112.171 346.199 109.141C347.96 106.063 350.375 103.668 353.444 101.958C356.513 100.199 360.034 99.3192 364.01 99.3192C367.933 99.3192 371.305 100.174 374.123 101.885C376.94 103.546 379.076 105.868 380.537 108.848C382.046 111.78 382.8 115.176 382.8 119.037C382.8 119.965 382.473 120.747 381.817 121.382C381.164 121.969 380.334 122.262 379.33 122.262H348.916V116.398H379.101L376.008 118.45C375.957 116.007 375.453 113.832 374.5 111.927C373.542 109.972 372.183 108.433 370.424 107.309C368.662 106.185 366.526 105.623 364.01 105.623C361.141 105.623 358.676 106.234 356.613 107.455C354.601 108.677 353.066 110.363 352.01 112.513C350.953 114.614 350.425 117.009 350.425 119.696C350.425 122.384 351.054 124.778 352.311 126.879C353.569 128.981 355.305 130.642 357.519 131.864C359.732 133.085 362.273 133.696 365.141 133.696C366.7 133.696 368.285 133.427 369.895 132.89C371.555 132.304 372.89 131.644 373.894 130.911C374.648 130.374 375.453 130.105 376.309 130.105C377.216 130.056 377.995 130.3 378.648 130.838C379.504 131.571 379.957 132.377 380.008 133.256C380.058 134.136 379.656 134.894 378.8 135.529C377.089 136.848 374.953 137.923 372.386 138.754C369.869 139.585 367.454 140 365.141 140Z" fill="black"></path> <path d="M446.8 139.78C445.694 139.78 444.762 139.438 444.008 138.754C443.304 138.021 442.952 137.117 442.952 136.042V115.079C442.952 112 442.173 109.728 440.614 108.262C439.055 106.747 437.017 105.99 434.5 105.99C431.886 105.99 429.721 106.869 428.01 108.628C426.349 110.387 425.518 112.635 425.518 115.372H419.256C419.256 112.195 419.96 109.41 421.37 107.016C422.777 104.573 424.739 102.667 427.255 101.298C429.823 99.93 432.738 99.2462 436.009 99.2462C438.877 99.2462 441.419 99.857 443.631 101.079C445.846 102.3 447.554 104.108 448.761 106.503C450.02 108.848 450.651 111.707 450.651 115.079V136.042C450.651 137.117 450.299 138.021 449.592 138.754C448.888 139.438 447.956 139.78 446.8 139.78ZM396.466 139.78C395.36 139.78 394.429 139.438 393.674 138.754C392.971 138.021 392.616 137.117 392.616 136.042V103.424C392.616 102.3 392.971 101.396 393.674 100.712C394.429 100.028 395.36 99.686 396.466 99.686C397.623 99.686 398.555 100.028 399.258 100.712C399.962 101.396 400.314 102.3 400.314 103.424V136.042C400.314 137.117 399.962 138.021 399.258 138.754C398.555 139.438 397.623 139.78 396.466 139.78ZM421.671 139.78C420.565 139.78 419.633 139.438 418.879 138.754C418.176 138.021 417.824 137.117 417.824 136.042V115.079C417.824 112 417.044 109.728 415.481 108.262C413.922 106.747 411.884 105.99 409.372 105.99C406.754 105.99 404.592 106.869 402.881 108.628C401.169 110.387 400.314 112.635 400.314 115.372H395.56C395.56 112.195 396.213 109.41 397.522 107.016C398.831 104.573 400.64 102.667 402.957 101.298C405.27 99.93 407.91 99.2462 410.88 99.2462C413.748 99.2462 416.286 99.857 418.502 101.079C420.714 102.3 422.425 104.108 423.633 106.503C424.891 108.848 425.518 111.707 425.518 115.079V136.042C425.518 137.117 425.167 138.021 424.463 138.754C423.76 139.438 422.828 139.78 421.671 139.78Z" fill="black"></path> <path d="M480.645 140C476.972 140 473.676 139.12 470.761 137.361C467.842 135.553 465.528 133.134 463.817 130.105C462.156 127.026 461.326 123.557 461.326 119.696C461.326 115.836 462.232 112.366 464.042 109.288C465.905 106.21 468.397 103.79 471.515 102.031C474.684 100.223 478.23 99.3192 482.154 99.3192C486.077 99.3192 489.602 100.223 492.72 102.031C495.839 103.79 498.304 106.21 500.114 109.288C501.978 112.366 502.906 115.836 502.906 119.696H499.965C499.965 123.557 499.109 127.026 497.398 130.105C495.737 133.134 493.449 135.553 490.53 137.361C487.615 139.12 484.319 140 480.645 140ZM482.154 133.403C484.721 133.403 487.009 132.817 489.022 131.644C491.034 130.422 492.619 128.785 493.775 126.733C494.932 124.632 495.512 122.286 495.512 119.696C495.512 117.058 494.932 114.712 493.775 112.66C492.619 110.558 491.034 108.921 489.022 107.749C487.009 106.527 484.721 105.916 482.154 105.916C479.637 105.916 477.349 106.527 475.286 107.749C473.274 108.921 471.664 110.558 470.456 112.66C469.299 114.712 468.723 117.058 468.723 119.696C468.723 122.286 469.299 124.632 470.456 126.733C471.664 128.785 473.274 130.422 475.286 131.644C477.349 132.817 479.637 133.403 482.154 133.403ZM499.059 139.78C497.953 139.78 497.021 139.438 496.267 138.754C495.563 138.021 495.211 137.117 495.211 136.042V124.827L496.644 117.058L502.906 119.696V136.042C502.906 137.117 502.529 138.021 501.775 138.754C501.071 139.438 500.165 139.78 499.059 139.78Z" fill="black"></path> <path d="M529.833 99.686C530.587 99.686 531.269 99.8814 531.871 100.272C532.476 100.663 532.951 101.274 533.307 102.105L548.852 134.869C549.305 135.847 549.356 136.726 549 137.508C548.649 138.241 548.047 138.803 547.191 139.194C546.085 139.682 545.128 139.805 544.323 139.56C543.518 139.316 542.84 138.705 542.285 137.728L528.1 106.429H531.947L517.305 137.728C516.855 138.656 516.174 139.267 515.271 139.56C514.415 139.805 513.458 139.682 512.402 139.194C511.445 138.754 510.767 138.168 510.365 137.435C510.013 136.702 510.085 135.847 510.589 134.869L526.211 102.105C526.965 100.492 528.172 99.686 529.833 99.686Z" fill="black"></path> <path d="M574.125 99.686C574.88 99.686 575.558 99.8814 576.163 100.272C576.765 100.663 577.244 101.274 577.595 102.105L593.144 134.869C593.594 135.847 593.644 136.726 593.293 137.508C592.941 138.241 592.339 138.803 591.483 139.194C590.377 139.682 589.42 139.805 588.615 139.56C587.81 139.316 587.132 138.705 586.577 137.728L572.388 106.429H576.239L561.597 137.728C561.144 138.656 560.466 139.267 559.559 139.56C558.704 139.805 557.75 139.682 556.691 139.194C555.738 138.754 555.06 138.168 554.657 137.435C554.302 136.702 554.378 135.847 554.882 134.869L570.503 102.105C571.257 100.492 572.465 99.686 574.125 99.686Z" fill="black"></path> <path d="M622.341 140C618.164 140 614.443 139.145 611.173 137.435C607.953 135.676 605.411 133.281 603.551 130.251C601.738 127.173 600.835 123.655 600.835 119.696C600.835 115.689 601.691 112.171 603.399 109.141C605.161 106.063 607.576 103.668 610.643 101.958C613.715 100.199 617.236 99.3192 621.21 99.3192C625.133 99.3192 628.505 100.174 631.323 101.885C634.14 103.546 636.276 105.868 637.737 108.848C639.246 111.78 640 115.176 640 119.037C640 119.965 639.674 120.747 639.017 121.382C638.365 121.969 637.534 122.262 636.53 122.262H606.114V116.398H636.301L633.208 118.45C633.158 116.007 632.654 113.832 631.7 111.927C630.743 109.972 629.383 108.433 627.624 107.309C625.862 106.185 623.726 105.623 621.21 105.623C618.342 105.623 615.876 106.234 613.813 107.455C611.8 108.677 610.266 110.363 609.211 112.513C608.152 114.614 607.627 117.009 607.627 119.696C607.627 122.384 608.254 124.778 609.512 126.879C610.77 128.981 612.507 130.642 614.719 131.864C616.935 133.085 619.473 133.696 622.341 133.696C623.9 133.696 625.485 133.427 627.095 132.89C628.756 132.304 630.09 131.644 631.094 130.911C631.849 130.374 632.654 130.105 633.509 130.105C634.416 130.056 635.195 130.3 635.848 130.838C636.704 131.571 637.157 132.377 637.208 133.256C637.259 134.136 636.856 134.894 636 135.529C634.289 136.848 632.153 137.923 629.586 138.754C627.069 139.585 624.655 140 622.341 140Z" fill="black"></path> <path d="M77.7939 93.1959C77.7939 90.2439 80.2575 87.8512 83.2965 87.8512H87.5447C90.5838 87.8512 93.0477 90.2439 93.0477 93.1959V134.362C93.0477 137.314 90.5841 139.706 87.5447 139.706H83.2965C80.2575 139.706 77.7939 137.314 77.7939 134.362V93.1959Z" fill="black"></path> <path d="M122.03 56.1566C122.03 53.2049 124.494 50.8119 127.533 50.8119H131.781C134.82 50.8119 137.283 53.2049 137.283 56.1566V97.3226C137.283 100.274 134.82 102.667 131.781 102.667H127.533C124.494 102.667 122.03 100.274 122.03 97.3226V56.1566Z" fill="black"></path> <path d="M5.50266 94.1699C2.46363 94.1699 0 91.7638 0 88.8118C0 85.8602 2.46363 83.4541 5.50266 83.4541H27.5943C30.6334 83.4541 33.097 85.8602 33.097 88.8118C33.097 91.7638 30.6334 94.1699 27.5943 94.1699H5.50266Z" fill="black"></path> <path d="M22.0651 89.0823C22.0651 86.1303 24.5422 83.7376 27.5812 83.7376C30.6202 83.7376 33.0974 86.1303 33.0974 89.0823V116.969C33.0974 119.921 30.6202 122.314 27.5812 122.314C24.5422 122.314 22.0651 119.921 22.0651 116.969V89.0823Z" fill="black"></path> <path d="M125.081 6.69909C125.081 3.74731 127.544 1.3544 130.583 1.3544H131.781C134.82 1.3544 137.283 3.74731 137.283 6.69909V36.0124C137.283 38.9641 134.82 41.3571 131.781 41.3571H130.583C127.544 41.3571 125.081 38.9641 125.081 36.0124V6.69909Z" fill="black"></path> <path d="M128.894 10.8097C125.945 10.8097 123.555 8.48809 123.555 5.62419C123.555 2.76032 125.945 0.43868 128.894 0.43868H176.181C179.129 0.43868 181.519 2.76032 181.519 5.62419C181.519 8.48809 179.129 10.8097 176.181 10.8097H128.894Z" fill="black"></path> <path d="M125.866 1.38157C127.212 0.315229 129.193 0.510238 130.291 1.81714L133.289 5.387C134.387 6.6939 134.186 8.61779 132.841 9.68412L29.3822 91.676C28.0366 92.7421 26.0559 92.5471 24.958 91.2401L21.9591 87.6703C20.8613 86.3634 21.0621 84.4398 22.4076 83.3734L125.866 1.38157Z" fill="black"></path> <path d="M131.182 65.6276C126.969 65.6276 123.555 62.3109 123.555 58.2199C123.555 54.1285 126.969 50.8119 131.182 50.8119H173.892C178.105 50.8119 181.519 54.1285 181.519 58.2199C181.519 62.3109 178.105 65.6276 173.892 65.6276H131.182Z" fill="black"></path> <path d="M84.8219 102.668C81.7829 102.668 79.3194 100.275 79.3194 97.3229V93.1963C79.3194 90.2446 81.7829 87.8516 84.8219 87.8516H131.185C134.224 87.8516 136.688 90.2446 136.688 93.1963V97.3229C136.688 100.275 134.224 102.668 131.185 102.668H84.8219Z" fill="black"></path> <path d="M41.1852 139.707C36.9728 139.707 33.5582 136.39 33.5582 132.299C33.5582 128.208 36.9728 124.891 41.1852 124.891H85.421C89.633 124.891 93.0477 128.208 93.0477 132.299C93.0477 136.39 89.633 139.707 85.421 139.707H41.1852Z" fill="black"></path> </svg> 