<?xml version="1.0" encoding="UTF-8"?> <svg xmlns="http://www.w3.org/2000/svg" width="120" height="120" viewBox="0 0 120 120" fill="none"> <path d="M53.1911 68.78L71.772 58.9232L53.1911 49.2659V68.78Z" fill="black"></path> <path d="M60 0C26.8632 0 0 26.8632 0 60C0 93.1368 26.8632 120 60 120C93.1368 120 120 93.1368 120 60C120 26.8632 93.1368 0 60 0ZM93.5006 73.9743C92.7012 79.0359 90.2543 81.7846 85.1087 82.3662C79.3584 83.0159 66.4293 83.3152 60.6826 83.3152C54.7364 83.3152 42.7101 83.0658 36.7067 82.5657C31.5465 82.1362 28.0252 79.2537 27.3159 74.1239C26.8 70.3885 26.4666 65.9487 26.4666 58.8891C26.4666 51.0302 26.7501 47.7048 27.4156 44.1544C28.3659 39.0879 30.7848 36.6337 36.3064 36.063C42.1005 35.4632 47.5783 35.1639 59.8333 35.1639C65.8245 35.1639 78.7415 35.4741 84.7084 36.0131C89.9197 36.484 92.8557 39.6719 93.4994 44.7542C93.9483 48.301 94.3486 53.3785 94.3486 58.8404C94.3499 68.4296 93.5006 73.9743 93.5006 73.9743Z" fill="black"></path> </svg> 